<svg width="28" height="28" viewBox="0 0 28 28" fill="none" xmlns="http://www.w3.org/2000/svg">
<g id="icon-current-project-28x28">
<rect width="28" height="28" rx="5" fill="#D7F1FF"/>
<path id="Symbol" d="M17.375 21.875H19.0625C19.4844 21.8516 19.8125 21.6641 20.0469 21.3125L23.9844 14.5625C24.1719 14.1875 24.1719 13.8125 23.9844 13.4375C23.75 13.0859 23.4219 12.8984 23 12.875H8.9375C8.51562 12.8984 8.1875 13.0859 7.95312 13.4375L5.5625 17.5508V8.375C5.58594 8.02344 5.77344 7.83594 6.125 7.8125H10.2734C10.4141 7.8125 10.543 7.87109 10.6602 7.98828L11.5742 8.90234C12.3477 9.65234 13.2852 10.0391 14.3867 10.0625H18.5C18.8516 10.0859 19.0391 10.2734 19.0625 10.625V11.75H20.75V10.625C20.7266 9.99219 20.5039 9.46484 20.082 9.04297C19.6602 8.62109 19.1328 8.39844 18.5 8.375H14.3867C13.7539 8.375 13.2148 8.15234 12.7695 7.70703L11.8555 6.79297C11.4102 6.34766 10.8711 6.125 10.2383 6.125H6.125C5.49219 6.14844 4.96484 6.37109 4.54297 6.79297C4.12109 7.21484 3.89844 7.74219 3.875 8.375V19.625C3.89844 20.2578 4.12109 20.7852 4.54297 21.207C4.96484 21.6289 5.49219 21.8516 6.125 21.875H6.96875H17.375V21.875V21.875" fill="#4DB49B"/>
</g>
</svg>
